<?xml version="1.0" encoding="utf-8"?>
<!-- Generator: Adobe Illustrator 16.0.0, SVG Export Plug-In . SVG Version: 6.00 Build 0)  -->
<!DOCTYPE svg PUBLIC "-//W3C//DTD SVG 1.1//EN" "http://www.w3.org/Graphics/SVG/1.1/DTD/svg11.dtd">
<svg version="1.1" id="Layer_1" xmlns="http://www.w3.org/2000/svg" xmlns:xlink="http://www.w3.org/1999/xlink" x="0px" y="0px"
	 width="512px" height="412.572px" viewBox="0 0 512 412.572" enable-background="new 0 0 512 412.572" xml:space="preserve">
<g>
	<g>
		<path fill="#7ECCFD" d="M118.999,248.12c-4.648-12.009-7.742-24.735-9.133-37.964c-0.68-6.481-0.908-12.957-0.736-19.396
			c0.588-21.877,6.047-43.305,16.154-62.859l-7.283-3.763c-10.619,20.55-16.453,43.175-17.082,66.384
			c-0.184,6.807,0.068,13.661,0.791,20.529c1.477,14.047,4.811,27.455,9.719,40.018c10.561,27.042,28.445,50.142,50.992,67.148
			l4.889-6.486C145.175,295.044,128.69,273.154,118.999,248.12z"/>
		<path fill="#51BBFD" d="M406.403,280.541l-0.17-0.096c-11.848,20.824-27.912,39.076-47.152,53.48
			c-24.195,18.111-53.404,30.143-85.582,33.525c-27.074,2.846-53.367-0.734-77.367-9.496l-0.063,0.172l-3.945,10.891l-3.773,10.414
			c27.861,10.094,58.182,13.787,87.684,10.688c39.574-4.16,76.531-20.07,106.875-46.012c17.584-15.031,32.096-32.826,43.197-52.417
			L406.403,280.541z"/>
		<path fill="#3BB3FC" d="M404.573,67.353L387.251,82.16c22.725,26.545,36.963,59.408,40.662,94.605
			c3.91,37.196-4.297,72.925-21.43,103.246c-0.082,0.146-0.168,0.288-0.25,0.434l0.17,0.096l19.703,11.149
			c19.922-35.157,28.818-76.128,24.475-117.462C446.421,134.656,430.513,97.701,404.573,67.353z"/>
		<path fill="#3BB3FC" d="M409.017,178.751c-3.395-32.303-16.436-61.328-36.08-84.355l-6.371,5.444l-8.398,6.448
			c6.162,7.104,11.273,14.443,15.887,22.755c8.934,16.104,14.432,33.46,16.336,51.59c2.918,27.761-3.031,56.465-16.744,80.882
			l9.168,5.164l7.121,4.01C405.19,243.689,412.499,211.875,409.017,178.751z"/>
		<path fill="#51BBFD" d="M382.813,266.679c-0.074,0.131-0.146,0.26-0.221,0.391c-8.27,14.588-19.08,27.84-32.174,39.031
			c-2.469,2.109-5.006,4.114-7.586,6.043c-21.074,15.76-45.775,25.488-72.025,28.248c-22.018,2.314-44.643-0.443-65.428-7.971
			l-2.777,7.67c21.375,7.807,44.795,10.998,68.912,8.463c28.652-3.012,54.664-13.725,76.207-29.854
			c17.131-12.822,31.432-29.07,41.98-47.609c0.076-0.133,0.156-0.268,0.232-0.402L382.813,266.679z"/>
		<path fill="#51BBFD" d="M386.319,81.086c-4.777-5.489-9.912-10.71-15.404-15.61c-32.014-28.564-73.174-44.223-115.9-44.088
			l0.061,19c46.555-0.146,88.549,20.226,117.018,53.037c0.283,0.324,0.564,0.645,0.844,0.971l14.314-12.236
			C386.942,81.8,386.63,81.444,386.319,81.086z"/>
		<path fill="#51BBFD" d="M126.849,96.275l-3.172-2.436l-5.951-4.569c-6.357,8.279-11.895,17.032-16.605,26.144l16.881,8.724
			c4.197-8.119,9.131-15.919,14.795-23.298L126.849,96.275z"/>
		<path fill="#009EFF" d="M238.458,33.785c5.469-0.574,11.029-0.875,16.523-0.891l-0.012-4.001
			c-5.629,0.018-11.326,0.325-16.93,0.914c-45.77,4.812-86.369,27.547-114.363,64.032l3.172,2.436
			C154.169,60.669,193.788,38.48,238.458,33.785z"/>
		<path fill="#009EFF" d="M427.913,176.765c-3.699-35.197-17.938-68.061-40.662-94.605l-14.314,12.236
			c19.645,23.027,32.686,52.053,36.08,84.355c3.482,33.123-3.826,64.938-19.082,91.938c-0.076,0.135-0.156,0.27-0.232,0.402
			c-10.549,18.539-24.85,34.787-41.98,47.609c-21.543,16.129-47.555,26.842-76.207,29.854c-24.117,2.535-47.537-0.656-68.912-8.463
			c-14.475-5.287-28.004-12.693-40.182-21.875c-22.547-17.007-40.432-40.106-50.992-67.148c-4.908-12.563-8.242-25.971-9.719-40.018
			c-0.723-6.868-0.975-13.723-0.791-20.529c0.629-23.209,6.463-45.834,17.082-66.384l-16.881-8.724
			c-11.93,23.079-18.486,48.489-19.193,74.557c-0.209,7.647,0.076,15.35,0.887,23.066c1.658,15.77,5.402,30.822,10.908,44.928
			c11.861,30.373,31.947,56.316,57.27,75.416c13.678,10.316,28.881,18.637,45.141,24.574c24,8.762,50.293,12.342,77.367,9.496
			c32.178-3.383,61.387-15.414,85.582-33.525c19.24-14.404,35.305-32.656,47.152-53.48c0.082-0.146,0.168-0.287,0.25-0.434
			C423.616,249.69,431.823,213.961,427.913,176.765z"/>
		<path fill="#7ECCFD" d="M93.722,257.964c-5.506-14.105-9.25-29.158-10.908-44.928c-0.811-7.717-1.096-15.419-0.887-23.066
			c0.707-26.067,7.264-51.478,19.193-74.557l-20.254-10.469c-17.578,34.008-24.744,72.197-20.725,110.437
			c2.785,26.503,10.732,51.709,23.621,74.919c13.352,24.043,31.334,44.688,53.451,61.357l6.654-8.828l6.994-9.279l0.129-0.17
			C125.669,314.281,105.583,288.337,93.722,257.964z"/>
	</g>
	<g>
		
			<rect x="23.413" y="161.688" transform="matrix(0.9945 -0.1045 0.1045 0.9945 -20.6245 27.9138)" fill="#009EFF" width="465.173" height="98.075"/>
		<g>
			<g>
				<polygon fill="#FFFFFF" points="200.243,200.083 198.585,184.308 124.452,192.101 126.106,207.875 153.45,205 158.458,252.669 
					177.911,250.626 172.903,202.958 				"/>
				<path fill="#FFFFFF" d="M31.815,201.21l12.881,28.732l0.008-0.008c3.088,7.379,10.635,8.594,32.646,6.279
					c25.061-2.637,27.377-2.523,27.957,2.996c0.514,4.907-3.645,5.789-7.762,6.221l-23.836,2.503
					c-5.609,0.589-8.381,0.351-9.178-6.39l-19.453,2.046l0.461,4.379c1.445,13.759,8.895,16.343,26.594,14.479l23.574-2.477
					c25.85-2.713,31.336-6.127,29.543-23.213c-1.945-18.491-9.148-19.596-39.371-16.329c-20.848,2.28-23.232,2.351-23.811-3.167
					c-0.359-3.414,2.463-5.221,6.844-5.68l21.559-2.266c8.936-0.939,9.666,0.93,10.154,5.577l19.453-2.046l-0.211-2.011
					c-1.17-11.132-4.074-18.532-26.508-16.177L31.815,201.21z"/>
				<path fill="#FFFFFF" d="M218.212,182.246l-27.682,67.053l21.732-2.285l4.516-11.813l39.434-4.146l7.225,10.582l21.646-2.277
					l-41.547-59.774L218.212,182.246z M222.616,220.766l9.764-25.124l15.125,22.506L222.616,220.766z"/>
				<polygon fill="#FFFFFF" points="385.579,164.656 355.696,167.794 337.997,210.941 311.708,172.421 281.829,175.559 
					288.497,239.002 307.423,237.014 302.636,191.447 302.81,191.429 333.099,234.315 347.646,232.787 368.353,184.54 
					368.532,184.523 373.321,230.085 392.249,228.097 				"/>
				<path fill="#FFFFFF" d="M395.218,163.643l6.666,63.442l19.455-2.043l-1.676-15.95l38.645-4.062
					c13.756-1.445,16.732-12.746,15.74-22.209l-0.57-5.432c-1.305-12.443-6.754-21.262-25.246-19.319L395.218,163.643z
					 M453.579,180.277l0.258,2.456c0.396,3.767-1.043,6.929-5.6,7.407l-30.232,3.178l-1.68-15.947l28.57-3.002
					C450.765,173.752,453.126,175.984,453.579,180.277z"/>
			</g>
			<polygon fill="#FF6600" points="60.104,213.206 55.003,201.74 48.376,202.437 36.437,203.692 42.45,217.207 46.062,225.33 			"/>
		</g>
	</g>
</g>
</svg>
